<svg width="168" height="62" viewBox="0 0 168 62" fill="none" xmlns="http://www.w3.org/2000/svg">
<g id="ibict-logo" clip-path="url(#clip0_103_30)">
<g id="nome">
<path id="Vector" d="M78.53 17.53H84.15V12.2H78.53V17.53ZM78.53 47.43H84.15V21.92H78.53V47.43Z" fill="#1D3362"/>
<path id="Vector_2" d="M88.59 47.43H93.92V43.93H94.02C95.7 47.28 99.4 48.12 102.85 48.12C110.4 48.12 113.85 41.66 113.85 34.8C113.85 27.35 109.95 21.23 101.91 21.23C99.05 21.23 95.84 22.76 94.31 25.23H94.21V12.21H88.59V47.44V47.43ZM108.23 34.7C108.23 39.14 106.31 43.68 101.18 43.68C96.64 43.68 94.03 39.83 94.03 34.7C94.03 29.27 96.45 25.67 101.18 25.67C105.91 25.67 108.23 30.06 108.23 34.7Z" fill="#1D3362"/>
<path id="Vector_3" d="M115.75 17.53H121.37V12.2H115.75V17.53ZM115.75 47.43H121.37V21.92H115.75V47.43Z" fill="#1D3362"/>
<path id="Vector_4" d="M148.73 30.46C148.19 24.19 143.16 21.23 137.23 21.23C128.84 21.23 124.65 27.25 124.65 34.95C124.65 42.65 129.04 48.12 137.03 48.12C143.59 48.12 147.69 44.47 148.72 37.86H143.1C142.56 41.51 140.29 43.68 137.03 43.68C132.15 43.68 130.27 39.19 130.27 34.95C130.27 27.2 134.36 25.68 137.28 25.68C140.39 25.68 142.66 27.36 143.1 30.47H148.72L148.73 30.46Z" fill="#1D3362"/>
<path id="Vector_5" d="M148.93 26.12H153.17V41.17C153.27 45.41 154.35 47.68 160.23 47.68C161.46 47.68 162.65 47.48 163.88 47.38V43.04C163.09 43.24 162.3 43.24 161.51 43.24C158.99 43.24 158.8 42.06 158.8 39.74V26.12H163.88V21.93H158.8V14.28H153.18V21.93H148.94V26.12H148.93Z" fill="#1D3362"/>
</g>
<g id="icone">
<path id="Vector_6" fill-rule="evenodd" clip-rule="evenodd" d="M15.68 1.63C15.68 0.530002 16.04 -0.289997 17.07 0.100003C18.56 0.700003 32.57 7.89 33.46 8.35C34.03 8.63 35.06 8.88 35.81 8.53L54.15 0.670003C54.47 0.630003 54.4 1.03 54.01 1.2C53.65 1.41 35.59 12.61 34.1 13.47C34.67 13.61 35.59 12.97 36.13 12.72C38.23 11.87 53.45 5.11 54.09 4.75C54.27 4.61 54.66 5 54.02 5.32C53.42 5.64 35.78 16.06 34.36 17.05C34.93 17.09 35.78 16.73 36.17 16.52C36.6 16.31 52.99 9.34 54.16 8.8C54.44 8.69 54.55 9.3 54.12 9.51C52.98 10.04 35.59 20 34.92 20.36C34.67 20.47 34.49 20.72 34.49 20.79C35.38 20.47 53.37 13.07 54.33 12.9C54.51 12.86 54.69 13.26 54.15 13.61C53.62 13.93 37.19 23 34.98 24.28C34.66 24.42 34.48 24.67 34.52 24.85C35.41 24.64 53.23 17.17 54.15 16.85C54.5 16.74 54.5 17.1 54.19 17.31C53.87 17.52 38.37 26.7 37.3 27.2C36.62 27.52 35.2 28.34 33.42 27.48C31.61 26.59 19.2 19.27 17.67 18.27C16.18 17.24 15.64 16.17 15.64 15.25C15.64 14.33 15.68 3.05 15.68 1.63Z" fill="#1D3362"/>
<path id="Vector_7" fill-rule="evenodd" clip-rule="evenodd" d="M20.12 61.58C19.16 62.15 18.23 62.26 18.09 61.15C17.84 59.55 16.88 43.83 16.81 42.87C16.77 42.19 16.35 40.95 15.67 40.49L0.0600112 28.69C-0.149989 28.41 0.200011 28.3 0.560011 28.51C0.950011 28.72 19.41 38.82 20.9 39.68C20.72 39.11 20.33 38.76 19.87 38.4C18.06 37.01 4.22001 27.02 3.58001 26.67C3.37001 26.56 3.51001 26.07 4.11001 26.42C4.71001 26.78 22.28 36.95 23.85 37.66C23.6 37.13 22.85 36.59 22.46 36.34C22.07 36.09 7.92001 25.53 6.88001 24.75C6.63001 24.57 7.09001 24.18 7.48001 24.43C8.51001 25.14 25.76 35.06 26.4 35.45C26.61 35.63 26.93 35.66 27 35.63C26.25 35.03 11.03 23.33 10.39 22.62C10.25 22.48 10.53 22.12 11.1 22.41C11.46 22.62 27.17 32.44 29.73 33.9C30.01 34.08 29.94 33.94 30.09 33.65C29.45 32.97 14.2 21.2 13.45 20.56C13.17 20.31 13.49 20.13 13.81 20.31C14.17 20.49 30.1 29.31 31.06 29.95C31.7 30.38 33.12 31.16 33.3 33.15C33.48 35.14 33.48 49.54 33.37 51.39C33.26 53.2 32.62 54.23 31.84 54.7C31.06 55.16 21.31 60.85 20.11 61.6" fill="#1D3362"/>
<path id="Vector_8" fill-rule="evenodd" clip-rule="evenodd" d="M69.6201 28.05C70.5801 28.62 70.9701 29.19 70.1201 29.86C68.8401 30.86 56.0401 39.28 55.2201 39.82C54.6501 40.18 53.4801 41.24 53.4101 42.06L51.1001 61.9C50.9901 62.18 50.7101 61.94 50.7101 61.51C50.7101 61.08 50.1801 39.85 50.1401 38.15C49.7501 38.58 49.7801 39.25 49.6801 39.82C49.4001 42.06 47.5501 59.02 47.5501 59.73C47.5501 59.98 47.0501 60.12 47.0901 59.41C47.0901 58.7 47.0901 38.25 46.9501 36.58C46.5901 37.04 46.5201 37.93 46.4901 38.39C46.4501 38.85 44.1801 56.31 44.0401 57.59C44.0001 57.91 43.5801 57.91 43.6101 57.45C43.7201 56.21 43.7501 36.19 43.7901 35.4C43.8301 35.15 43.7201 34.83 43.6501 34.8C43.4701 35.76 40.8801 54.71 40.5901 55.6C40.5201 55.81 40.0901 56.06 40.0601 55.46C40.0601 54.82 40.5601 35.97 40.5901 33.38C40.5901 33.06 40.2701 32.88 40.1301 32.81C39.8501 33.7 37.4601 52.87 37.2501 53.83C37.1801 54.22 36.8601 54.04 36.8201 53.65C36.8201 53.26 36.6101 35.23 36.6801 34.09C36.7501 33.31 36.7501 31.67 38.3901 30.53C40.0301 29.39 52.5801 22.32 54.2101 21.5C55.8801 20.72 57.0501 20.79 57.8401 21.22C58.6201 21.68 68.4001 27.34 69.6501 28.05" fill="#1D3362"/>
</g>
</g>
<defs>
<clipPath id="clip0_103_30">
<rect width="168" height="62" fill="white"/>
</clipPath>
</defs>
</svg>
