<svg width="339" height="63" viewBox="0 0 339 63" fill="none" xmlns="http://www.w3.org/2000/svg">
<g id="ibict" clip-path="url(#clip0_103_18)">
<path id="text" d="M292 41.75C292 42.75 291.59 43.37 290.77 43.37C290.2 43.37 289.92 42.91 289.92 42.34C289.92 41.83 290.09 41.43 290.48 41.24C290.89 41.05 291.65 40.89 292.01 40.61V41.75H292ZM293.3 38.88C293.3 37.67 292.33 37.2 291.13 37.2C289.33 37.2 288.73 38 288.73 39.46H290.03C290.03 38.79 290.16 38.14 291.07 38.14C291.79 38.14 292.01 38.54 292.01 39.17C292.01 39.8 291.7 39.91 291.21 40.05L290.14 40.34C289.21 40.64 288.55 40.96 288.55 42.48C288.55 43.79 289.24 44.4 290.33 44.4C291.13 44.4 291.66 44.07 292.03 43.4H292.06C292.1 44.06 292.61 44.3 293.22 44.3C293.49 44.3 293.73 44.21 293.89 44.13V43.24C293.84 43.27 293.75 43.28 293.66 43.28C293.46 43.28 293.3 43.05 293.3 42.8V38.89V38.88ZM286.05 36.41H287.42V35.04H286.05V36.41ZM286.05 44.21H287.42V37.37H286.05V44.21ZM281.14 40.57C281.14 39.3 281.31 38.28 282.3 38.28C283.29 38.28 283.39 39.51 283.39 40.63C283.39 41.75 283.28 43.06 282.21 43.06C281.14 43.06 281.14 41.74 281.14 40.57ZM279.95 44.79C279.95 45.35 280.18 46.54 282.21 46.54C284.05 46.54 284.77 45.54 284.77 43.87V37.36H283.47V38.2H283.44C283.31 37.7 282.74 37.18 281.94 37.18C280 37.18 279.77 39.2 279.77 40.7C279.77 42.57 280.22 44.14 281.82 44.14C282.48 44.14 283.12 43.8 283.37 43.2H283.4V44.31C283.4 45.1 282.95 45.59 282.24 45.59C281.63 45.59 281.25 45.2 281.25 44.78H279.95V44.79ZM275.09 40.79C275.09 39.28 275.27 38.21 276.26 38.21C277.25 38.21 277.44 39.28 277.44 40.79C277.44 42.53 277.26 43.37 276.26 43.37C275.26 43.37 275.09 42.53 275.09 40.79ZM273.72 40.79C273.72 42.91 274.37 44.39 276.26 44.39C278.15 44.39 278.82 42.92 278.82 40.79C278.82 38.66 278.26 37.19 276.26 37.19C274.26 37.19 273.72 38.66 273.72 40.79ZM271.23 44.21H272.6V35.13H271.23V44.21ZM266.39 40.79C266.39 39.28 266.57 38.21 267.56 38.21C268.55 38.21 268.74 39.28 268.74 40.79C268.74 42.53 268.56 43.37 267.56 43.37C266.56 43.37 266.39 42.53 266.39 40.79ZM265.02 40.79C265.02 42.91 265.67 44.39 267.56 44.39C269.45 44.39 270.12 42.92 270.12 40.79C270.12 38.66 269.56 37.19 267.56 37.19C265.56 37.19 265.02 38.66 265.02 40.79ZM259.17 44.21H260.54V39.62C260.54 38.73 261.07 38.29 261.63 38.29C262.32 38.29 262.58 38.63 262.58 39.52V44.21H263.95V39.05C263.95 37.66 263.29 37.19 262.25 37.19C261.49 37.19 260.84 37.56 260.5 38.17H260.46V37.37H259.16V44.21H259.17ZM256.84 41.72C256.84 42.75 256.56 43.39 255.8 43.37C254.81 43.37 254.63 42.3 254.63 40.79C254.63 39.28 254.81 38.21 255.8 38.21C256.6 38.18 256.78 39.01 256.78 39.65H258.15C258.15 38.8 257.85 37.17 255.8 37.2C253.82 37.2 253.26 38.67 253.26 40.8C253.26 42.93 253.82 44.4 255.8 44.4C257.49 44.4 258.05 43.37 258.14 41.73H256.84V41.72ZM248.82 40.03V39.89C248.82 39 249.09 38.14 249.96 38.14C250.74 38.14 251.02 38.8 251.02 39.67V40.04H248.82V40.03ZM252.39 40.97V40.25C252.39 38.34 251.88 37.2 249.97 37.2C247.82 37.2 247.44 39.11 247.44 40.9C247.44 44.07 248.83 44.4 249.94 44.4C251.43 44.4 252.34 43.45 252.34 41.93H251.04C251.04 42.34 250.93 43.46 249.95 43.46C248.92 43.46 248.81 42.29 248.81 41.38V40.99H252.38L252.39 40.97ZM244.27 44.21H245.72V36.35H247.84V35.13H242.11V36.35H244.27V44.21ZM235.41 40.03V39.89C235.41 39 235.68 38.14 236.55 38.14C237.33 38.14 237.61 38.8 237.61 39.67V40.04H235.41V40.03ZM238.98 40.97V40.25C238.98 38.34 238.47 37.2 236.56 37.2C234.41 37.2 234.03 39.11 234.03 40.9C234.03 44.07 235.42 44.4 236.53 44.4C238.02 44.4 238.93 43.45 238.93 41.93H237.63C237.63 42.34 237.52 43.46 236.54 43.46C235.51 43.46 235.4 42.29 235.4 41.38V40.99H238.97L238.98 40.97ZM228.48 41.75C228.48 42.75 228.07 43.37 227.25 43.37C226.68 43.37 226.4 42.91 226.4 42.34C226.4 41.83 226.57 41.43 226.96 41.24C227.37 41.05 228.13 40.89 228.49 40.61V41.75H228.48ZM229.78 38.88C229.78 37.67 228.81 37.2 227.61 37.2C225.81 37.2 225.21 38 225.21 39.46H226.51C226.51 38.79 226.64 38.14 227.55 38.14C228.27 38.14 228.49 38.54 228.49 39.17C228.49 39.8 228.18 39.91 227.69 40.05L226.62 40.34C225.69 40.64 225.03 40.96 225.03 42.48C225.03 43.79 225.72 44.4 226.81 44.4C227.61 44.4 228.14 44.07 228.51 43.4H228.54C228.58 44.06 229.09 44.3 229.7 44.3C229.97 44.3 230.21 44.21 230.37 44.13V43.24C230.32 43.27 230.23 43.28 230.14 43.28C229.94 43.28 229.78 43.05 229.78 42.8V38.89V38.88ZM222.53 36.41H223.9V35.04H222.53V36.41ZM222.53 44.21H223.9V37.37H222.53V44.21ZM220.14 41.72C220.14 42.75 219.86 43.39 219.1 43.37C218.11 43.37 217.93 42.3 217.93 40.79C217.93 39.28 218.11 38.21 219.1 38.21C219.9 38.18 220.08 39.01 220.08 39.65H221.45C221.45 38.8 221.15 37.17 219.1 37.2C217.12 37.2 216.56 38.67 216.56 40.8C216.56 42.93 217.12 44.4 219.1 44.4C220.79 44.4 221.35 43.37 221.44 41.73H220.14V41.72ZM210.71 44.21H212.08V39.62C212.08 38.73 212.61 38.29 213.17 38.29C213.86 38.29 214.12 38.63 214.12 39.52V44.21H215.49V39.05C215.49 37.66 214.83 37.19 213.79 37.19C213.03 37.19 212.38 37.56 212.04 38.17H212V37.37H210.7V44.21H210.71ZM205.43 36.48H206.52L207.24 35.36L207.93 36.48H209.09L207.96 34.65H206.59L205.43 36.48ZM206 40.03V39.89C206 39 206.27 38.14 207.14 38.14C207.92 38.14 208.2 38.8 208.2 39.67V40.04H206V40.03ZM209.57 40.97V40.25C209.57 38.34 209.06 37.2 207.15 37.2C205 37.2 204.62 39.11 204.62 40.9C204.62 44.07 206.01 44.4 207.12 44.4C208.61 44.4 209.52 43.45 209.52 41.93H208.22C208.22 42.34 208.11 43.46 207.13 43.46C206.1 43.46 205.99 42.29 205.99 41.38V40.99H209.56L209.57 40.97ZM202.06 36.41H203.43V35.04H202.06V36.41ZM202.06 44.21H203.43V37.37H202.06V44.21ZM199.62 40.96V41.11C199.62 41.95 199.48 43.3 198.27 43.3C197.2 43.3 196.72 42.56 196.72 39.64C196.72 36.72 197.2 36.06 198.27 36.06C199.31 36.02 199.57 36.99 199.57 37.83V37.98H201.02V37.81C201.02 36.87 200.87 34.96 198.29 34.96C195.99 34.96 195.28 36.43 195.28 39.68C195.28 42.93 195.99 44.4 198.28 44.4C200.42 44.4 201.08 42.8 201.08 41.16V40.97H199.63L199.62 40.96ZM183.01 44.21H184.38V39.62C184.38 38.73 184.91 38.29 185.46 38.29C186.01 38.29 186.3 38.63 186.3 39.52V44.21H187.67V39.62C187.67 38.73 188.2 38.29 188.76 38.29C189.32 38.29 189.59 38.63 189.59 39.52V44.21H190.96V39.01C190.96 37.69 190.26 37.19 189.29 37.19C188.46 37.19 187.96 37.57 187.56 38.23C187.36 37.66 186.95 37.19 185.97 37.19C185.32 37.19 184.67 37.56 184.33 38.17H184.29V37.37H182.99V44.21H183.01ZM178.24 40.03V39.89C178.24 39 178.51 38.14 179.38 38.14C180.16 38.14 180.44 38.8 180.44 39.67V40.04H178.24V40.03ZM181.81 40.97V40.25C181.81 38.34 181.3 37.2 179.39 37.2C177.24 37.2 176.86 39.11 176.86 40.9C176.86 44.07 178.25 44.4 179.36 44.4C180.85 44.4 181.76 43.45 181.76 41.93H180.46C180.46 42.34 180.35 43.46 179.37 43.46C178.34 43.46 178.23 42.29 178.23 41.38V40.99H181.8L181.81 40.97ZM334.69 27.13C334.69 25.62 334.87 24.55 335.86 24.55C336.85 24.55 337.04 25.62 337.04 27.13C337.04 28.87 336.86 29.71 335.86 29.71C334.86 29.71 334.69 28.87 334.69 27.13ZM333.32 27.13C333.32 29.25 333.97 30.73 335.86 30.73C337.75 30.73 338.42 29.26 338.42 27.13C338.42 25 337.86 23.53 335.86 23.53C333.86 23.53 333.32 25 333.32 27.13ZM331.12 21.17C331.12 21.4 331.03 21.65 330.74 21.65C330.52 21.65 330.27 21.54 330.03 21.42C329.79 21.32 329.56 21.2 329.36 21.2C328.42 21.2 328.08 22.18 328.08 22.73H328.87C328.87 22.48 329.02 22.22 329.3 22.22C329.69 22.22 330.25 22.67 330.83 22.67C331.55 22.67 331.92 21.73 331.92 21.17H331.13H331.12ZM330.89 28.09C330.89 29.09 330.48 29.71 329.66 29.71C329.09 29.71 328.81 29.25 328.81 28.68C328.81 28.17 328.98 27.77 329.37 27.58C329.78 27.39 330.54 27.23 330.9 26.95V28.09H330.89ZM332.19 25.22C332.19 24.01 331.22 23.54 330.02 23.54C328.22 23.54 327.62 24.34 327.62 25.8H328.92C328.92 25.13 329.05 24.48 329.96 24.48C330.68 24.48 330.9 24.88 330.9 25.51C330.9 26.14 330.59 26.25 330.1 26.39L329.03 26.68C328.1 26.98 327.44 27.3 327.44 28.82C327.44 30.13 328.13 30.74 329.22 30.74C330.02 30.74 330.55 30.41 330.92 29.74H330.95C330.99 30.4 331.5 30.64 332.11 30.64C332.38 30.64 332.62 30.55 332.78 30.47V29.58C332.73 29.61 332.64 29.62 332.55 29.62C332.35 29.62 332.19 29.39 332.19 29.14V25.23V25.22ZM323.48 31.66L323.71 31.88C323.84 31.84 324 31.78 324.19 31.78C324.51 31.78 324.77 31.97 324.77 32.26C324.77 32.65 324.36 32.74 324.06 32.74C323.78 32.74 323.42 32.65 323.22 32.57L323.02 33.08C323.32 33.19 323.82 33.3 324.3 33.3C325.14 33.3 325.79 32.84 325.79 32.16C325.79 31.65 325.37 31.22 324.8 31.22C324.63 31.22 324.42 31.26 324.29 31.28L324.71 30.7C326.11 30.56 326.59 29.57 326.67 28.07H325.37C325.37 29.1 325.09 29.74 324.33 29.72C323.34 29.72 323.16 28.65 323.16 27.14C323.16 25.63 323.34 24.56 324.33 24.56C325.13 24.53 325.31 25.36 325.31 26H326.68C326.68 25.15 326.38 23.52 324.33 23.55C322.35 23.55 321.79 25.02 321.79 27.15C321.79 29.28 322.3 30.61 324.08 30.72L323.48 31.67V31.66ZM319.36 28.09C319.36 29.09 318.95 29.71 318.13 29.71C317.56 29.71 317.28 29.25 317.28 28.68C317.28 28.17 317.45 27.77 317.84 27.58C318.25 27.39 319.01 27.23 319.37 26.95V28.09H319.36ZM320.66 25.22C320.66 24.01 319.69 23.54 318.49 23.54C316.69 23.54 316.09 24.34 316.09 25.8H317.39C317.39 25.13 317.52 24.48 318.43 24.48C319.15 24.48 319.37 24.88 319.37 25.51C319.37 26.14 319.06 26.25 318.57 26.39L317.5 26.68C316.57 26.98 315.91 27.3 315.91 28.82C315.91 30.13 316.6 30.74 317.69 30.74C318.49 30.74 319.02 30.41 319.39 29.74H319.42C319.46 30.4 319.97 30.64 320.58 30.64C320.85 30.64 321.09 30.55 321.25 30.47V29.58C321.2 29.61 321.11 29.62 321.02 29.62C320.82 29.62 320.66 29.39 320.66 29.14V25.23V25.22ZM306.83 30.55H308.2V25.96C308.2 25.07 308.73 24.63 309.28 24.63C309.83 24.63 310.12 24.97 310.12 25.86V30.55H311.49V25.96C311.49 25.07 312.02 24.63 312.58 24.63C313.14 24.63 313.41 24.97 313.41 25.86V30.55H314.78V25.35C314.78 24.03 314.08 23.53 313.11 23.53C312.28 23.53 311.78 23.91 311.38 24.57C311.18 24 310.77 23.53 309.79 23.53C309.14 23.53 308.49 23.9 308.15 24.51H308.11V23.71H306.81V30.55H306.83ZM302.64 30.55H304.01V26.46C304.01 25.19 304.76 24.91 305.38 24.91C305.61 24.91 305.85 24.96 305.95 24.99V23.59C305.86 23.56 305.77 23.54 305.62 23.54C304.84 23.54 304.34 24.02 304.03 24.79H304V23.72H302.63V30.56L302.64 30.55ZM297.86 27.13C297.86 25.62 298.04 24.55 299.03 24.55C300.02 24.55 300.21 25.62 300.21 27.13C300.21 28.87 300.03 29.71 299.03 29.71C298.03 29.71 297.86 28.87 297.86 27.13ZM296.49 27.13C296.49 29.25 297.14 30.73 299.03 30.73C300.92 30.73 301.59 29.26 301.59 27.13C301.59 25 301.03 23.53 299.03 23.53C297.03 23.53 296.49 25 296.49 27.13ZM293.64 30.55H295.01V24.73H296.13V23.71H295.01V23.11C295.01 22.65 295.24 22.46 295.75 22.46H296.13V21.4C295.93 21.37 295.67 21.36 295.38 21.36C294.26 21.36 293.64 21.77 293.64 23.06V23.7H292.69V24.72H293.64V30.54V30.55ZM287.11 30.55H288.48V25.96C288.48 25.07 289.01 24.63 289.57 24.63C290.26 24.63 290.52 24.97 290.52 25.86V30.55H291.89V25.39C291.89 24 291.23 23.53 290.19 23.53C289.43 23.53 288.78 23.9 288.44 24.51H288.4V23.71H287.1V30.55H287.11ZM284.31 30.55H285.76V21.47H284.31V30.55ZM276.53 26.37V26.23C276.53 25.34 276.8 24.48 277.67 24.48C278.45 24.48 278.73 25.14 278.73 26.01V26.38H276.53V26.37ZM280.1 27.31V26.59C280.1 24.68 279.59 23.54 277.68 23.54C275.53 23.54 275.15 25.45 275.15 27.24C275.15 30.41 276.54 30.74 277.65 30.74C279.14 30.74 280.05 29.79 280.05 28.27H278.75C278.75 28.68 278.64 29.8 277.66 29.8C276.63 29.8 276.52 28.63 276.52 27.72V27.33H280.09L280.1 27.31ZM272.73 27.21C272.73 28.67 272.51 29.64 271.57 29.64C270.63 29.64 270.41 28.66 270.41 27.11C270.41 25.27 270.69 24.63 271.48 24.63C272.54 24.63 272.73 25.57 272.73 27.21ZM272.73 30.55H274.03V21.47H272.66V24.51H272.63C272.38 23.9 271.82 23.53 271.08 23.53C270.04 23.53 268.97 24 268.97 27.04C268.97 29.39 269.61 30.73 271.21 30.73C272.19 30.73 272.53 30.16 272.71 29.71H272.74V30.55H272.73ZM261.4 27.13C261.4 25.62 261.58 24.55 262.57 24.55C263.56 24.55 263.75 25.62 263.75 27.13C263.75 28.87 263.57 29.71 262.57 29.71C261.57 29.71 261.4 28.87 261.4 27.13ZM260.03 27.13C260.03 29.25 260.68 30.73 262.57 30.73C264.46 30.73 265.13 29.26 265.13 27.13C265.13 25 264.57 23.53 262.57 23.53C260.57 23.53 260.03 25 260.03 27.13ZM256.29 30.55H257.66V26.46C257.66 25.19 258.41 24.91 259.03 24.91C259.26 24.91 259.5 24.96 259.6 24.99V23.59C259.51 23.56 259.42 23.54 259.27 23.54C258.49 23.54 257.99 24.02 257.68 24.79H257.65V23.72H256.28V30.56L256.29 30.55ZM253.53 22.75H254.9V21.38H253.53V22.75ZM253.53 30.55H254.9V23.71H253.53V30.55ZM248.76 26.37V26.23C248.76 25.34 249.03 24.48 249.9 24.48C250.68 24.48 250.95 25.14 250.95 26.01V26.38H248.75L248.76 26.37ZM252.33 27.31V26.59C252.33 24.68 251.82 23.54 249.91 23.54C247.76 23.54 247.38 25.45 247.38 27.24C247.38 30.41 248.77 30.74 249.88 30.74C251.37 30.74 252.28 29.79 252.28 28.27H250.98C250.98 28.68 250.87 29.8 249.89 29.8C248.86 29.8 248.75 28.63 248.75 27.72V27.33H252.32L252.33 27.31ZM244.82 30.55H246.19V21.47H244.82V30.55ZM242 22.75H243.37V21.38H242V22.75ZM242 30.55H243.37V23.71H242V30.55ZM240.77 25.71V25.41C240.77 24.56 240.38 23.54 238.63 23.54C237.22 23.54 236.29 24.14 236.29 25.42C236.29 26.51 236.72 27.03 237.75 27.39L238.87 27.78C239.35 27.95 239.62 28.28 239.62 28.78C239.62 29.4 239.25 29.78 238.5 29.78C237.71 29.78 237.43 29.35 237.43 28.56V28.34H236.21V28.59C236.21 29.91 236.73 30.71 238.46 30.71C239.85 30.71 240.91 30.09 240.91 28.63C240.91 27.55 240.44 27 239.42 26.66L238.54 26.35C237.82 26.1 237.57 25.88 237.57 25.35C237.57 24.71 238 24.46 238.55 24.46C239.26 24.46 239.45 24.97 239.45 25.52V25.7H240.75L240.77 25.71ZM233.83 28.09C233.83 29.09 233.42 29.71 232.6 29.71C232.03 29.71 231.75 29.25 231.75 28.68C231.75 28.17 231.92 27.77 232.31 27.58C232.72 27.39 233.48 27.23 233.84 26.95V28.09H233.83ZM235.13 25.22C235.13 24.01 234.16 23.54 232.96 23.54C231.16 23.54 230.56 24.34 230.56 25.8H231.86C231.86 25.13 231.99 24.48 232.9 24.48C233.62 24.48 233.84 24.88 233.84 25.51C233.84 26.14 233.53 26.25 233.04 26.39L231.97 26.68C231.04 26.98 230.38 27.3 230.38 28.82C230.38 30.13 231.07 30.74 232.16 30.74C232.96 30.74 233.49 30.41 233.86 29.74H233.89C233.93 30.4 234.44 30.64 235.05 30.64C235.32 30.64 235.56 30.55 235.72 30.47V29.58C235.67 29.61 235.58 29.62 235.49 29.62C235.29 29.62 235.13 29.39 235.13 29.14V25.23V25.22ZM226.71 30.55H228.08V26.46C228.08 25.19 228.83 24.91 229.45 24.91C229.68 24.91 229.92 24.96 230.02 24.99V23.59C229.93 23.56 229.84 23.54 229.69 23.54C228.91 23.54 228.41 24.02 228.1 24.79H228.07V23.72H226.7V30.56L226.71 30.55ZM219.97 30.55H222.84C224.54 30.55 225.64 29.58 225.64 28.07C225.64 26.56 225 25.93 224.01 25.76V25.73C224.91 25.45 225.34 24.78 225.34 23.67C225.34 22.07 224.25 21.47 222.9 21.47H219.96V30.55H219.97ZM221.42 29.46V26.32H222.77C223.61 26.32 224.19 26.88 224.19 27.86C224.19 28.9 223.72 29.46 222.86 29.46H221.42ZM221.42 25.3V22.57H222.44C223.25 22.57 223.9 22.79 223.9 23.87C223.9 24.72 223.44 25.31 222.57 25.31H221.43L221.42 25.3ZM212.05 27.13C212.05 25.62 212.23 24.55 213.22 24.55C214.21 24.55 214.4 25.62 214.4 27.13C214.4 28.87 214.22 29.71 213.22 29.71C212.22 29.71 212.05 28.87 212.05 27.13ZM210.68 27.13C210.68 29.25 211.33 30.73 213.22 30.73C215.11 30.73 215.78 29.26 215.78 27.13C215.78 25 215.22 23.53 213.22 23.53C211.22 23.53 210.68 25 210.68 27.13ZM206.8 24.73H207.74V28.98C207.74 30.38 208.2 30.63 209.13 30.63C209.56 30.63 209.94 30.59 210.24 30.52V29.5C210.11 29.53 209.95 29.54 209.74 29.54C209.27 29.54 209.12 29.35 209.12 28.82V24.74H210.24V23.72H209.12V21.78H207.75V23.72H206.81V24.74L206.8 24.73ZM204.79 30.55H206.09V23.71H204.72V28.49C204.72 29.25 204.19 29.63 203.6 29.63C203.01 29.63 202.67 29.38 202.67 28.61V23.7H201.3V28.48C201.3 30.25 201.99 30.72 203 30.72C203.76 30.72 204.41 30.35 204.75 29.74H204.79V30.54V30.55ZM197.15 24.73H198.09V28.98C198.09 30.38 198.55 30.63 199.48 30.63C199.91 30.63 200.29 30.59 200.59 30.52V29.5C200.46 29.53 200.3 29.54 200.09 29.54C199.62 29.54 199.47 29.35 199.47 28.82V24.74H200.59V23.72H199.47V21.78H198.1V23.72H197.16V24.74L197.15 24.73ZM195 22.75H196.37V21.38H195V22.75ZM195 30.55H196.37V23.71H195V30.55ZM190.79 24.73H191.73V28.98C191.73 30.38 192.19 30.63 193.12 30.63C193.55 30.63 193.93 30.59 194.23 30.52V29.5C194.1 29.53 193.94 29.54 193.73 29.54C193.26 29.54 193.11 29.35 193.11 28.82V24.74H194.23V23.72H193.11V21.78H191.74V23.72H190.8V24.74L190.79 24.73ZM190.23 25.71V25.41C190.23 24.56 189.84 23.54 188.09 23.54C186.68 23.54 185.75 24.14 185.75 25.42C185.75 26.51 186.18 27.03 187.21 27.39L188.33 27.78C188.81 27.95 189.08 28.28 189.08 28.78C189.08 29.4 188.71 29.78 187.96 29.78C187.17 29.78 186.89 29.35 186.89 28.56V28.34H185.67V28.59C185.67 29.91 186.19 30.71 187.92 30.71C189.31 30.71 190.37 30.09 190.37 28.63C190.37 27.55 189.9 27 188.88 26.66L188 26.35C187.28 26.1 187.03 25.88 187.03 25.35C187.03 24.71 187.46 24.46 188.01 24.46C188.72 24.46 188.91 24.97 188.91 25.52V25.7H190.21L190.23 25.71ZM179.87 30.55H181.24V25.96C181.24 25.07 181.77 24.63 182.33 24.63C183.02 24.63 183.28 24.97 183.28 25.86V30.55H184.65V25.39C184.65 24 183.99 23.53 182.95 23.53C182.19 23.53 181.54 23.9 181.2 24.51H181.16V23.71H179.86V30.55H179.87ZM177.07 30.55H178.52V21.47H177.07V30.55Z" fill="#1D3362"/>
<g id="nome">
<path id="Vector" d="M78.53 17.53H84.15V12.2H78.53V17.53ZM78.53 47.43H84.15V21.92H78.53V47.43Z" fill="#1D3362"/>
<path id="Vector_2" d="M88.59 47.43H93.92V43.93H94.02C95.7 47.28 99.4 48.12 102.85 48.12C110.4 48.12 113.85 41.66 113.85 34.8C113.85 27.35 109.95 21.23 101.91 21.23C99.05 21.23 95.84 22.76 94.31 25.23H94.21V12.21H88.59V47.44V47.43ZM108.23 34.7C108.23 39.14 106.31 43.68 101.18 43.68C96.64 43.68 94.03 39.83 94.03 34.7C94.03 29.27 96.45 25.67 101.18 25.67C105.91 25.67 108.23 30.06 108.23 34.7Z" fill="#1D3362"/>
<path id="Vector_3" d="M115.75 17.53H121.37V12.2H115.75V17.53ZM115.75 47.43H121.37V21.92H115.75V47.43Z" fill="#1D3362"/>
<path id="Vector_4" d="M148.73 30.46C148.19 24.19 143.16 21.23 137.23 21.23C128.84 21.23 124.65 27.25 124.65 34.95C124.65 42.65 129.04 48.12 137.03 48.12C143.59 48.12 147.69 44.47 148.72 37.86H143.1C142.56 41.51 140.29 43.68 137.03 43.68C132.15 43.68 130.27 39.19 130.27 34.95C130.27 27.2 134.36 25.68 137.28 25.68C140.39 25.68 142.66 27.36 143.1 30.47H148.72L148.73 30.46Z" fill="#1D3362"/>
<path id="Vector_5" d="M148.93 26.12H153.17V41.17C153.27 45.41 154.35 47.68 160.23 47.68C161.46 47.68 162.65 47.48 163.88 47.38V43.04C163.09 43.24 162.3 43.24 161.51 43.24C158.99 43.24 158.8 42.06 158.8 39.74V26.12H163.88V21.93H158.8V14.28H153.18V21.93H148.94V26.12H148.93Z" fill="#1D3362"/>
</g>
<g id="icone">
<path id="Vector_6" fill-rule="evenodd" clip-rule="evenodd" d="M15.68 1.63C15.68 0.530002 16.04 -0.289997 17.07 0.100003C18.56 0.700003 32.57 7.89 33.46 8.35C34.03 8.63 35.06 8.88 35.81 8.53L54.15 0.670003C54.47 0.630003 54.4 1.03 54.01 1.2C53.65 1.41 35.59 12.61 34.1 13.47C34.67 13.61 35.59 12.97 36.13 12.72C38.23 11.87 53.45 5.11 54.09 4.75C54.27 4.61 54.66 5 54.02 5.32C53.42 5.64 35.78 16.06 34.36 17.05C34.93 17.09 35.78 16.73 36.17 16.52C36.6 16.31 52.99 9.34 54.16 8.8C54.44 8.69 54.55 9.3 54.12 9.51C52.98 10.04 35.59 20 34.92 20.36C34.67 20.47 34.49 20.72 34.49 20.79C35.38 20.47 53.37 13.07 54.33 12.9C54.51 12.86 54.69 13.26 54.15 13.61C53.62 13.93 37.19 23 34.98 24.28C34.66 24.42 34.48 24.67 34.52 24.85C35.41 24.64 53.23 17.17 54.15 16.85C54.5 16.74 54.5 17.1 54.19 17.31C53.87 17.52 38.37 26.7 37.3 27.2C36.62 27.52 35.2 28.34 33.42 27.48C31.61 26.59 19.2 19.27 17.67 18.27C16.18 17.24 15.64 16.17 15.64 15.25C15.64 14.33 15.68 3.05 15.68 1.63Z" fill="#1D3362"/>
<path id="Vector_7" fill-rule="evenodd" clip-rule="evenodd" d="M20.12 61.58C19.16 62.15 18.23 62.26 18.09 61.15C17.84 59.55 16.88 43.83 16.81 42.87C16.77 42.19 16.35 40.95 15.67 40.49L0.0600112 28.69C-0.149989 28.41 0.200011 28.3 0.560011 28.51C0.950011 28.72 19.41 38.82 20.9 39.68C20.72 39.11 20.33 38.76 19.87 38.4C18.06 37.01 4.22001 27.02 3.58001 26.67C3.37001 26.56 3.51001 26.07 4.11001 26.42C4.71001 26.78 22.28 36.95 23.85 37.66C23.6 37.13 22.85 36.59 22.46 36.34C22.07 36.09 7.92001 25.53 6.88001 24.75C6.63001 24.57 7.09001 24.18 7.48001 24.43C8.51001 25.14 25.76 35.06 26.4 35.45C26.61 35.63 26.93 35.66 27 35.63C26.25 35.03 11.03 23.33 10.39 22.62C10.25 22.48 10.53 22.12 11.1 22.41C11.46 22.62 27.17 32.44 29.73 33.9C30.01 34.08 29.94 33.94 30.09 33.65C29.45 32.97 14.2 21.2 13.45 20.56C13.17 20.31 13.49 20.13 13.81 20.31C14.17 20.49 30.1 29.31 31.06 29.95C31.7 30.38 33.12 31.16 33.3 33.15C33.48 35.14 33.48 49.54 33.37 51.39C33.26 53.2 32.62 54.23 31.84 54.7C31.06 55.16 21.31 60.85 20.11 61.6" fill="#1D3362"/>
<path id="Vector_8" fill-rule="evenodd" clip-rule="evenodd" d="M69.6201 28.05C70.5801 28.62 70.9701 29.19 70.1201 29.86C68.8401 30.86 56.0401 39.28 55.2201 39.82C54.6501 40.18 53.4801 41.24 53.4101 42.06L51.1001 61.9C50.9901 62.18 50.7101 61.94 50.7101 61.51C50.7101 61.08 50.1801 39.85 50.1401 38.15C49.7501 38.58 49.7801 39.25 49.6801 39.82C49.4001 42.06 47.5501 59.02 47.5501 59.73C47.5501 59.98 47.0501 60.12 47.0901 59.41C47.0901 58.7 47.0901 38.25 46.9501 36.58C46.5901 37.04 46.5201 37.93 46.4901 38.39C46.4501 38.85 44.1801 56.31 44.0401 57.59C44.0001 57.91 43.5801 57.91 43.6101 57.45C43.7201 56.21 43.7501 36.19 43.7901 35.4C43.8301 35.15 43.7201 34.83 43.6501 34.8C43.4701 35.76 40.8801 54.71 40.5901 55.6C40.5201 55.81 40.0901 56.06 40.0601 55.46C40.0601 54.82 40.5601 35.97 40.5901 33.38C40.5901 33.06 40.2701 32.88 40.1301 32.81C39.8501 33.7 37.4601 52.87 37.2501 53.83C37.1801 54.22 36.8601 54.04 36.8201 53.65C36.8201 53.26 36.6101 35.23 36.6801 34.09C36.7501 33.31 36.7501 31.67 38.3901 30.53C40.0301 29.39 52.5801 22.32 54.2101 21.5C55.8801 20.72 57.0501 20.79 57.8401 21.22C58.6201 21.68 68.4001 27.34 69.6501 28.05" fill="#1D3362"/>
</g>
</g>
<defs>
<clipPath id="clip0_103_18">
<rect width="338.43" height="62.02" fill="white"/>
</clipPath>
</defs>
</svg>
